# xmcd
#
# Track frame offsets:
# 150
# 15660
# 33337
# 50877
# 66082
# 81432
# 91732
# 105877
# 121840
# 136025
# 155470
# 168535
# 182552
# 198827
# 215527
# 231815
# 249360
# 262982
#
# Disc length: 3678 seconds
#
#
# Revision: 0
# Processed by: cddbd v1.5.2PL0 Copyright (c) Steve Scherf et al.
# Submitted via: FreeRIP 2.944 
#
DISCID=e40e5c12
DTITLE=Varius - Compilation 2002 - Radio Italia Anni 60
DYEAR=2002
DGENRE=Blues
TTITLE0=Bobby Solo-Gelosia
TTITLE1=Dino-La Tua Immagine
TTITLE2=Dik Dik-Dieci Ragazze
TTITLE3=Delirium-Jesahel
TTITLE4=Donatello-Malattia d'Amore
TTITLE5=Little Tony-Quando Vedrai la mia Ragazza
TTITLE6=Franco Tozzi-I tuoi Occhi Verdi
TTITLE7=Giorgio Gaber-Barbera e Champagne
TTITLE8=Gilda Giuliani-La Voce del Silenzio
TTITLE9=Edoardo Vianello-Guarda come Dondolo
TTITLE10=I Profeti-Era Bella
TTITLE11=Jimmy Fontana-La Nostra Favola
TTITLE12=Pupo-Gelato al Cioccolato
TTITLE13=Tony Dallara-Come Prima
TTITLE14=I Collage-Piano piano M'innamorai di Te
TTITLE15=I Bisonti-Quando Ami una Donna
TTITLE16=Santino Rocchetti-Pelle di Sole
TTITLE17=Equipe 84-Un Giorno Tu mi Cercherai
EXTD=
EXTT0=
EXTT1=
EXTT2=
EXTT3=
EXTT4=
EXTT5=
EXTT6=
EXTT7=
EXTT8=
EXTT9=
EXTT10=
EXTT11=
EXTT12=
EXTT13=
EXTT14=
EXTT15=
EXTT16=
EXTT17=
PLAYORDER=
